<?xml version="1.0" standalone="no"?>
<!DOCTYPE svg PUBLIC "-//W3C//DTD SVG 20010904//EN"
 "http://www.w3.org/TR/2001/REC-SVG-20010904/DTD/svg10.dtd">
<svg version="1.0" xmlns="http://www.w3.org/2000/svg"
 width="309.000000pt" height="309.000000pt" viewBox="0 0 309.000000 309.000000"
 preserveAspectRatio="xMidYMid meet">

<g transform="translate(0.000000,309.000000) scale(0.100000,-0.100000)"
fill="#000000" stroke="none">
<path d="M1316 2884 c-158 -25 -366 -105 -511 -199 -191 -122 -376 -328 -473
-526 -40 -82 -92 -213 -92 -230 0 -5 26 -9 58 -9 l58 0 19 53 c99 282 337 548
613 686 152 76 384 131 553 131 499 0 970 -323 1150 -786 l33 -84 58 0 c32 0
58 2 58 4 0 14 -64 174 -91 228 -92 184 -274 395 -439 507 -290 199 -645 279
-994 225z"/>
<path d="M1350 2675 c-304 -51 -589 -235 -757 -487 -133 -201 -193 -401 -193
-643 0 -452 263 -851 686 -1043 40 -18 116 -45 170 -59 91 -25 115 -27 284
-27 167 1 194 3 282 27 122 32 282 106 254 116 -15 6 -43 75 -117 282 -124
351 -118 337 -129 319 -10 -19 -172 -467 -196 -542 -16 -51 -21 -58 -44 -58
-25 0 -29 8 -87 177 -115 333 -225 638 -246 683 -12 25 -33 51 -47 57 -17 9
-83 13 -207 13 -173 0 -183 1 -183 19 0 15 12 21 66 31 36 7 72 19 80 27 12
12 14 75 14 386 0 428 5 402 -94 448 l-61 28 287 1 c167 0 308 -4 337 -11 118
-25 184 -104 184 -223 0 -193 -190 -320 -431 -288 -42 6 -80 8 -84 6 -5 -3 -6
-81 -3 -172 5 -129 9 -170 21 -182 12 -12 47 -15 189 -15 168 0 175 -1 175
-20 0 -15 -12 -24 -48 -35 -39 -12 -48 -20 -50 -42 -5 -42 204 -666 218 -651
4 4 47 116 94 248 l87 240 -32 82 c-17 46 -38 88 -45 94 -7 6 -34 19 -61 29
-30 11 -48 24 -48 34 0 9 3 16 8 16 4 0 88 0 187 0 165 0 180 -1 180 -17 0
-13 -15 -23 -48 -33 -37 -12 -48 -20 -50 -39 -4 -29 208 -655 218 -644 4 4 44
123 89 263 45 140 91 282 102 314 10 33 19 65 19 72 0 6 -24 20 -52 30 -32 12
-54 26 -56 37 -3 16 10 17 158 17 145 0 161 -2 158 -17 -2 -9 -21 -22 -43 -30
-22 -7 -48 -21 -57 -31 -9 -9 -42 -89 -73 -177 -82 -228 -245 -718 -241 -722
8 -9 208 151 260 208 529 582 347 1486 -365 1818 -193 90 -444 123 -659 86z"/>
<path d="M1153 2363 l-33 -4 0 -189 c0 -115 4 -191 10 -195 22 -14 149 -17
198 -6 60 15 126 68 147 118 8 20 15 57 15 84 0 152 -118 219 -337 192z"/>
<path d="M240 1172 c0 -19 54 -156 92 -231 123 -246 346 -470 594 -596 90 -46
249 -102 359 -126 96 -21 420 -18 525 5 465 102 845 432 1004 874 14 40 26 75
26 78 0 2 -27 4 -59 4 l-59 0 -13 -37 c-99 -302 -348 -577 -646 -714 -239
-111 -502 -143 -759 -94 -247 47 -501 187 -671 369 -104 111 -210 285 -258
424 l-19 52 -58 0 c-32 0 -58 -3 -58 -8z"/>
</g>
</svg>
